PathFileType	4	(X/Y/Z)	24_1_47_p1_0-216.trc
DataRate	CameraRate	NumFrames	NumMarkers	Units	OrigDataRate	OrigDataStartFrame	OrigNumFrames
58.0	58.0	5	27	m	58.0	0	217
Frame#	Time	RHip			RKnee			RAnkle			RBigToe			RSmallToe			RHeel			LHip			LKnee			LAnkle			LBigToe			LSmallToe			LHeel			Neck			Head			Nose			RShoulder			RElbow			RWrist			RThumb			RIndex			RPinky			LShoulder			LElbow			LWrist			LThumb			LIndex			LPinky			
		X1	Y1	Z1	X2	Y2	Z2	X3	Y3	Z3	X4	Y4	Z4	X5	Y5	Z5	X6	Y6	Z6	X7	Y7	Z7	X8	Y8	Z8	X9	Y9	Z9	X10	Y10	Z10	X11	Y11	Z11	X12	Y12	Z12	X13	Y13	Z13	X14	Y14	Z14	X15	Y15	Z15	X16	Y16	Z16	X17	Y17	Z17	X18	Y18	Z18	X19	Y19	Z19	X20	Y20	Z20	X21	Y21	Z21	X22	Y22	Z22	X23	Y23	Z23	X24	Y24	Z24	X25	Y25	Z25	X26	Y26	Z26	X27	Y27	Z27	
0	0.0	0.43083536611212686	0.544731591779867	0.8375604035546651	0.43413024988223986	0.6148535077085376	1.3017954381810686	0.42800893944347523	0.6699396946756856	1.6985487727839088	0.4199853141262198	0.5629545235847392	1.736908912526721	0.482864902084306	0.5529901074709571	1.712540975695637	0.3993212787442119	0.7124572883511184	1.7397210320299592	0.2060262515769134	0.5391534537791447	0.852492733974535	0.20374842280692765	0.5908064113845891	1.3019694114691598	0.19979216093531305	0.647229164155919	1.7128912947895234	0.27227938931050516	0.5314977033321215	1.7295140339444117	0.19558075061181493	0.5286201191648506	1.728896608658299	0.17561990831244442	0.708514035823767	1.755908866811605	0.3294535757685673	0.42949819609583145	0.2547591796341339	0.34159453887265884	0.3510614023534634	0.03100044633525625	0.33184665004127667	0.2956883038084382	0.14437347013014626	0.4726237762557399	0.45797346303487907	0.3532982681732795	0.5179665687534842	0.5107560323517231	0.6220096461946247	0.4256797282004999	0.3602683858013522	0.8299173587877516	0.33969120539105496	0.3184592474153579	0.8626910478510948	0.3303068654389374	0.3465180220445296	0.8830580294149105	0.33331112416158787	0.3630595420069836	0.8944425782471053	0.17987898544650627	0.4644387455544187	0.35851467472955656	0.12396628072679576	0.4367598381260439	0.6206998649921713	0.25965008273591944	0.3156497370373395	0.7904422415050981	0.363522934852331	0.27608627650186124	0.8337242917168373	0.36765179593777725	0.2787379384177683	0.849907803403152	0.3302111413825488	0.3388322544672251	0.8767557162062419
1	0.017241379310344827	0.43094529375963764	0.5446489261691649	0.8376799949864424	0.4299825784666189	0.6137344854643201	1.3016668011851744	0.4275163967392276	0.6715679358355211	1.6954098322148303	0.41813450054514467	0.5473202938833414	1.7330999423163038	0.4826233490885192	0.5509359925424692	1.7105738330740712	0.40293032786653893	0.7319403256470921	1.7507900886234957	0.2061949621900535	0.5394105817957782	0.8528182348317971	0.20427658913007546	0.5936102822872878	1.3072693259027104	0.19853288150541745	0.6460932317940313	1.7030836157933893	0.26808296498263356	0.5019398957066415	1.7193467192357628	0.19515118943393847	0.524146178061951	1.7219563740258155	0.17926899786830847	0.7113048203882325	1.7556411174486777	0.32947850695581365	0.42949127858823843	0.2547465419364253	0.3416305847970836	0.35089336340604554	0.03084198465658004	0.33154650059358964	0.29473032653629566	0.14112526072022397	0.4766296475688262	0.4595172809807815	0.35314994285009477	0.5178672768494982	0.5108606394052015	0.6219376576440683	0.42564914821456107	0.36029476280618355	0.829925457565507	0.3405200912236408	0.3177564902709907	0.8602053395014215	0.33065057857957775	0.34633897474812	0.8829805258183075	0.33355582821962654	0.3632109753854643	0.8943631386444371	0.17996909800107513	0.4643632439390602	0.3583562329256628	0.1303025049570757	0.42444687884880056	0.6188410945315529	0.2596475172935133	0.3158992385332042	0.790408257102247	0.3579732130488357	0.2879204830552155	0.8364984037107382	0.3673803837898367	0.2792916935801651	0.8500429215629842	0.3300778668177207	0.33942729218262	0.8766503520535803
2	0.034482758620689655	0.43090350183322373	0.5447128195646759	0.8377091747477359	0.4341228709074444	0.6148015748242371	1.3015922717972501	0.4274864038337601	0.6712155786114137	1.6953544355110144	0.4136788032917021	0.5453591689352378	1.7328416980980663	0.47535940425465534	0.5349614537842209	1.7039113808072242	0.40318220784244796	0.7320005027928819	1.7502319159164033	0.21035329974300884	0.541042790860715	0.8528641393801705	0.20426148485806178	0.5934802327518053	1.3071947463839342	0.19918363518280277	0.6487034256197497	1.7090946642710942	0.26408802874083515	0.5006422357003855	1.7155438358484032	0.19441336183842445	0.5261864321581412	1.7191986979863099	0.17934307166537047	0.7112004691341319	1.7559470331435207	0.3294415481436813	0.42955603644459595	0.25477677281185523	0.341646820318317	0.35073854875767846	0.030609118943826567	0.3315289421816636	0.2947013668000727	0.14111635058496105	0.4766430295312372	0.4596562845601164	0.35322164183285043	0.5177480250903965	0.5111482138137856	0.6220124770935022	0.42554094296629597	0.3604626409804974	0.8299470176673014	0.34006654419551047	0.3182099983898767	0.8624758007448897	0.3301212463926817	0.34693698841057385	0.8856031254681302	0.332942553209298	0.36407693113109396	0.8974382608461867	0.17994782455708022	0.4644291979993424	0.3584086440374986	0.1240060034743135	0.437004604539348	0.6204929145208301	0.2637633339336762	0.31807749940262187	0.7905951912743567	0.357996460363901	0.287180809313632	0.8366924262697383	0.3674576410082015	0.27848028162550925	0.8503430423789218	0.3333648555432431	0.34180568971881287	0.8811361393288744
3	0.05172413793103448	0.4309817562638452	0.5444925529470926	0.8376264323720988	0.4341191655600191	0.6147946163515893	1.3014532016617593	0.4280469496549575	0.6697606308147706	1.6988801585493378	0.4136278324152411	0.5454071775759023	1.732594014458929	0.47517171110168105	0.5346989919372811	1.7036128929271805	0.4032875147932823	0.7326070571267351	1.7501553955719018	0.2104535334680565	0.5411576932645343	0.8528950941230844	0.2042580451517936	0.5935745999484737	1.3071899366794888	0.1991878555225298	0.648903776093931	1.7092573713555426	0.26395260461151904	0.5006215510182145	1.715636554061911	0.19476295815396166	0.5248343477772464	1.722292045488839	0.1800645913831584	0.7142651574953329	1.7625471736755247	0.3294285215014101	0.4295499264195304	0.25475924775392367	0.34165933826950257	0.35076332536440985	0.030750911295050722	0.33151510840078846	0.2946290258847266	0.1411454629582253	0.47661171835669064	0.459597592805503	0.3531712750564749	0.5156695364197477	0.5001875126726398	0.6243927217304442	0.4255786612677088	0.36036939596402706	0.8299427178651652	0.3358491187187703	0.32819348558350153	0.8626608513107425	0.3305474253326362	0.3437622826428436	0.8782767769468142	0.33361906356828075	0.36318979453525935	0.8943808662149774	0.17991230892504717	0.46448210447892724	0.3584176826143281	0.12437936241578856	0.4366605509200768	0.6170967221082141	0.25795656529777017	0.33050592040235155	0.7932865376795132	0.3557330798653725	0.27695440014097467	0.8347953696598509	0.36214303362059647	0.2905853824065385	0.8532502449871738	0.32938286520437665	0.3398470556866667	0.8809704704110667
4	0.06896551724137931	0.4310623385194574	0.5443693640315397	0.8375815012801031	0.4299604868015908	0.6137214558588885	1.3014444684367008	0.4278990518728145	0.6697305164077851	1.6991119791708817	0.4136332825056317	0.5458801522398997	1.7327812293307028	0.47778025649195044	0.5493803537780053	1.7102616555736394	0.40290797433830783	0.7324388718636828	1.750688948775839	0.2103978475698709	0.5410600020475661	0.8527847794555091	0.20372944627121256	0.5949004305988294	1.3032385889542286	0.19852458559555156	0.6461039627960163	1.7031729615298887	0.2639414972569177	0.5003255072276168	1.7153841694204128	0.19424757587550673	0.5257530480746722	1.718708301434944	0.17937899143696265	0.7112304780149135	1.7560219985127683	0.32404889639928736	0.4414624095041038	0.25487071348153384	0.34166954752276807	0.3507263418580459	0.030643801730493494	0.3314959985096728	0.29467704817759327	0.14109252214322374	0.47661823839225465	0.4596330769266429	0.35321484728932306	0.5156910424555103	0.5000602637223373	0.6244064164302907	0.4255969685019387	0.36013200077034013	0.8299884493128187	0.33586587056243694	0.32808044575039935	0.8627993513503359	0.3308195736983442	0.3461208081772522	0.8829322727389808	0.3336895594710759	0.3629866869697847	0.894020964664501	0.17986608393751055	0.4645823382401774	0.3584804126464419	0.12438287671994704	0.4366741510257499	0.6170514810269356	0.25793748828235125	0.33070273068818745	0.793353822859011	0.3522929929966135	0.2997721374973253	0.8396088157467783	0.3620145162225208	0.29097575319321695	0.8533740671994601	0.3331783779882077	0.34239773270662477	0.8812806815428215
